<?xml version="1.0" standalone="no"?>
<!DOCTYPE svg PUBLIC "-//W3C//DTD SVG 20010904//EN"
 "http://www.w3.org/TR/2001/REC-SVG-20010904/DTD/svg10.dtd">
<svg version="1.0" xmlns="http://www.w3.org/2000/svg"
 width="260.000000pt" height="260.000000pt" viewBox="0 0 260.000000 260.000000"
 preserveAspectRatio="xMidYMid meet">
<metadata>
Created by potrace 1.11, written by Peter Selinger 2001-2013
</metadata>
<g transform="translate(0.000000,260.000000) scale(0.100000,-0.100000)"
fill="#000000" stroke="none">
<path d="M392 2273 c-43 -21 -79 -65 -92 -113 -7 -26 -10 -214 -8 -547 l3
-508 23 -48 c40 -80 151 -137 266 -137 145 0 328 204 509 566 142 283 237 589
237 760 l0 44 -452 0 c-397 0 -457 -2 -486 -17z"/>
<path d="M1650 2198 c1 -245 33 -533 76 -668 26 -85 76 -170 99 -170 30 0 162
190 367 530 126 207 136 237 104 298 -19 36 -65 78 -99 91 -17 7 -129 11 -288
11 l-259 0 0 -92z"/>
<path d="M2291 1844 c-40 -28 -136 -157 -204 -275 -170 -293 -245 -548 -203
-692 l17 -57 209 0 210 0 0 520 c0 286 -1 520 -3 520 -1 0 -13 -7 -26 -16z"/>
<path d="M1353 1727 c-23 -39 -82 -150 -133 -246 -188 -355 -319 -536 -455
-627 l-50 -34 453 0 c297 0 452 3 452 10 0 15 -102 590 -136 765 -17 89 -47
165 -73 189 -16 15 -20 11 -58 -57z"/>
<path d="M290 575 c0 -94 0 -95 25 -95 22 0 24 4 27 60 l3 59 65 -59 c38 -34
74 -59 88 -60 21 0 22 3 22 95 0 88 -1 95 -20 95 -18 0 -20 -7 -20 -60 0 -33
-3 -60 -6 -60 -3 0 -35 27 -71 60 -42 38 -75 60 -89 60 -24 0 -24 -2 -24 -95z"/>
<path d="M580 575 l0 -95 115 0 c108 0 115 1 115 20 0 19 -7 20 -90 20 -83 0
-90 1 -90 20 0 18 7 20 75 20 60 0 75 3 75 15 0 12 -15 15 -75 15 -68 0 -75 2
-75 20 0 19 7 20 90 20 83 0 90 1 90 20 0 19 -7 20 -115 20 l-115 0 0 -95z"/>
<path d="M852 658 c3 -7 18 -50 34 -95 l29 -83 36 0 c35 0 37 2 59 61 12 34
25 57 30 53 4 -5 15 -33 26 -61 17 -51 20 -53 54 -53 l36 0 32 88 c18 48 32
90 32 95 0 4 -11 7 -24 7 -25 0 -26 -3 -72 -130 -3 -9 -17 14 -33 55 -25 65
-29 70 -56 70 -28 0 -32 -5 -54 -68 -13 -37 -26 -66 -28 -63 -3 3 -15 33 -28
68 -20 55 -26 63 -50 66 -20 3 -26 0 -23 -10z"/>
<path d="M1270 575 c0 -88 1 -95 20 -95 16 0 20 7 20 30 l0 30 68 0 c87 0 114
17 110 68 -4 49 -32 62 -135 62 l-83 0 0 -95z m161 44 c35 -18 5 -39 -57 -39
-54 0 -70 10 -60 35 6 18 87 21 117 4z"/>
<path d="M1600 663 c-28 -10 -59 -45 -65 -74 -13 -58 48 -119 120 -119 34 0
95 26 111 48 16 21 18 76 4 103 -21 39 -114 62 -170 42z m108 -49 c26 -18 30
-65 6 -85 -28 -23 -93 -17 -115 10 -24 29 -24 32 2 65 24 30 72 35 107 10z"/>
<path d="M1830 576 c0 -96 0 -96 25 -96 21 0 25 5 25 30 0 29 1 30 49 30 45 0
50 -2 61 -30 10 -24 19 -30 41 -30 l30 0 -16 31 c-15 28 -15 32 -1 48 20 22
21 61 2 87 -12 16 -29 20 -115 22 l-101 4 0 -96z m169 45 c8 -5 11 -16 8 -25
-5 -12 -21 -16 -67 -16 -57 0 -60 1 -60 25 0 24 3 25 53 25 28 0 58 -4 66 -9z"/>
<path d="M2100 651 c0 -16 8 -20 43 -23 l42 -3 3 -72 c3 -64 5 -73 22 -73 17
0 19 9 22 73 l3 72 43 3 c34 3 42 7 42 23 0 18 -8 19 -110 19 -102 0 -110 -1
-110 -19z"/>
</g>
</svg>
